<svg width="40" height="40" viewBox="0 0 40 40" fill="none" xmlns="http://www.w3.org/2000/svg">
<path d="M35.7947 14.5711L35.8165 6.45255C35.8164 6.16438 35.7306 5.88275 35.57 5.64346C35.4095 5.40417 35.1814 5.21802 34.9147 5.10867C34.6481 4.99933 34.355 4.97173 34.0726 5.02937C33.7903 5.08702 33.5315 5.22731 33.329 5.43242C31.4479 7.35353 26.6255 12.2696 15.8549 13.9997C15.6584 13.6906 15.3872 13.436 15.0662 13.2595C14.7453 13.0831 14.3851 12.9904 14.0188 12.9901H7.47948C7.0067 12.9909 6.54697 13.1452 6.16946 13.4298C5.79194 13.7144 5.51706 14.1139 5.38617 14.5682C4.95204 14.553 4.51427 14.5355 4.06596 14.5101C3.76747 14.4942 3.46891 14.5398 3.18872 14.6439C2.90853 14.748 2.65267 14.9084 2.43694 15.1153C2.19861 15.3412 2.00854 15.6131 1.87822 15.9145C1.74791 16.2159 1.68005 16.5406 1.67874 16.869L1.66676 21.3502C1.66589 21.6834 1.73349 22.0132 1.86535 22.3192C1.99721 22.6251 2.19053 22.9007 2.43331 23.1289C2.64775 23.3344 2.90271 23.493 3.18189 23.5944C3.46108 23.6958 3.75834 23.7378 4.0547 23.7178C4.4961 23.6869 4.92733 23.664 5.35529 23.6437C5.46169 24.1099 5.71839 24.5283 6.08587 24.8343C6.45335 25.1403 6.91123 25.3171 7.38902 25.3374C7.67348 25.9201 7.9485 26.4999 8.18282 27.0096C9.349 29.2824 8.771 32.2752 8.46837 33.4567C8.41797 33.6457 8.42009 33.845 8.4745 34.0329C8.52892 34.2209 8.63356 34.3904 8.77717 34.5233C8.91458 34.6446 9.08163 34.7274 9.26137 34.7633C9.44112 34.7991 9.62715 34.7868 9.80058 34.7275L14.7585 32.9539C14.8965 32.9034 15.0227 32.8253 15.1295 32.7244C15.2362 32.6234 15.3213 32.5018 15.3793 32.3668C15.4398 32.2282 15.4713 32.0788 15.4719 31.9276C15.4725 31.7764 15.4423 31.6267 15.383 31.4876L13.3031 26.6801C13.0984 26.2449 12.9193 25.7981 12.7665 25.3421H14.0188C14.4168 25.3417 14.8072 25.2323 15.1475 25.0258C15.4878 24.8194 15.7651 24.5237 15.9494 24.1708C26.4758 25.9038 31.3429 30.9209 33.2506 32.8907C33.4527 33.0973 33.7115 33.2396 33.9943 33.2996C34.2771 33.3596 34.5713 33.3346 34.84 33.2278C35.1077 33.1208 35.3373 32.9361 35.499 32.6974C35.6608 32.4587 35.7473 32.177 35.7475 31.8887L35.7693 23.7727C36.6486 23.3689 37.3941 22.7219 37.9175 21.9081C38.4409 21.0943 38.7205 20.1476 38.7231 19.18C38.7258 18.2124 38.4515 17.2643 37.9326 16.4476C37.4137 15.6309 36.6718 14.9797 35.7947 14.5711ZM5.29971 22.1902C4.85649 22.212 4.40927 22.2363 3.95334 22.2683C3.85632 22.2729 3.7594 22.2574 3.66863 22.2228C3.57786 22.1883 3.49521 22.1353 3.42583 22.0674C3.32935 21.9754 3.25251 21.8648 3.19994 21.7423C3.14736 21.6198 3.12015 21.4879 3.11994 21.3546L3.13229 16.873C3.13335 16.7421 3.16058 16.6127 3.21236 16.4925C3.26414 16.3723 3.33944 16.2636 3.43383 16.1729C3.50597 16.1016 3.59205 16.0459 3.68669 16.0093C3.78133 15.9727 3.88249 15.9561 3.98385 15.9604C4.42671 15.9858 4.86412 16.0032 5.29971 16.0185V22.1902ZM13.8989 31.7179L10.0404 33.0985C10.3673 31.4854 10.6659 28.6663 9.4896 26.3746C9.4035 26.1871 9.22948 25.8115 9.00641 25.3421H11.2389C11.4361 26.0055 11.6836 26.6528 11.9793 27.2785L13.8989 31.7179ZM14.7454 23.1623C14.7452 23.355 14.6686 23.5397 14.5324 23.6759C14.3961 23.8121 14.2114 23.8887 14.0188 23.8889H7.47948C7.28684 23.8887 7.10214 23.8121 6.96592 23.6759C6.8297 23.5397 6.75308 23.355 6.75289 23.1623V15.1698C6.75308 14.9772 6.8297 14.7925 6.96592 14.6563C7.10214 14.52 7.28684 14.4434 7.47948 14.4432H14.0188C14.2114 14.4434 14.3961 14.52 14.5324 14.6563C14.6686 14.7925 14.7452 14.9772 14.7454 15.1698V23.1623ZM34.3633 31.8814L34.2943 31.8796C32.2933 29.8136 27.1799 24.5429 16.1986 22.7362V15.4002C19.3773 14.9024 22.4784 13.9961 25.4248 12.7038C28.7884 11.2308 31.8265 9.10547 34.3633 6.45074V31.8814ZM35.774 22.0957L35.79 16.2474C36.25 16.5843 36.6239 17.0252 36.8811 17.534C37.1383 18.0429 37.2715 18.6054 37.2699 19.1756C37.2684 19.7458 37.1321 20.3075 36.8721 20.815C36.6121 21.3225 36.2359 21.7613 35.774 22.0957Z" fill="#FA4529"/>
</svg>
